<svg width="32" height="32" viewBox="0 0 32 32" fill="none" xmlns="http://www.w3.org/2000/svg">
<g clip-path="url(#clip0_1018_75)">
<path d="M20.5064 14.9282H0.22168V17.0357H20.5064V14.9282Z" fill="black"/>
<path d="M15.7823 22.1957L14.293 20.7064L19.0173 15.982L14.293 11.2577L15.7823 9.76843L21.9959 15.982L15.7823 22.1957Z" fill="black"/>
<path d="M15.9374 31.7883C9.43435 31.7883 3.67244 27.8845 1.2583 21.843L3.21511 21.0608C5.30786 26.2972 10.3016 29.6808 15.9374 29.6808C23.491 29.6808 29.6361 23.5357 29.6361 15.982C29.6361 8.4284 23.491 2.28328 15.9374 2.28328C10.3016 2.28328 5.30786 5.66687 3.21511 10.9033L1.2583 10.1211C3.67244 4.07957 9.43435 0.175781 15.9374 0.175781C24.653 0.175781 31.7436 7.26647 31.7436 15.982C31.7436 24.6976 24.6533 31.7883 15.9374 31.7883Z" fill="black"/>
</g>
<defs>
<clipPath id="clip0_1018_75">
<rect width="32" height="32" fill="white"/>
</clipPath>
</defs>
</svg>
